<svg id="Layer_1" data-name="Layer 1" xmlns="http://www.w3.org/2000/svg" viewBox="0 0 1000 1000"><defs><style>.cls-1{fill:#aa2b27;}.cls-2{fill:#fff;}.cls-3{fill:#5b0606;}.cls-4{fill:#fbb03b;}</style></defs><title>Pearls Greek Yoghurt logo</title><path class="cls-1" d="M706.26,359.45a8.12,8.12,0,0,0-13-2.51C580.11,465.43,400,239.36,307.48,349.12c-.11.13-.22.25-.34.37-10.82,10.92-19.33,28.22-23.85,48.73-13,58.84,13.11,119.33,63.83,151.85,6,3.87,12.05,7.47,18.06,10.85v0c35,21.24,146.52,73.51,265.81,13.73q2.28-1.12,4.5-2.3l.48-.25q2.65-1.39,5.25-2.84l.43-.23.14-.08,1.71-1,1.53-.9c22.86-13.28,41.78-29.29,55.59-46.12C725.58,490.57,725.3,401.29,706.26,359.45Z"/><path class="cls-2" d="M293.29,419.17c4.51-21.87,13-40.32,23.84-52l.34-.39c92.49-117,272.64,124,385.8,8.33.14-.15.3-.27.45-.41-1-2.89-2.09-5.63-3.25-8.17a1.77,1.77,0,0,0-1.63-1,1.63,1.63,0,0,0-1.16.47c-22.52,21.59-48.89,32.09-80.6,32.09-41.78,0-86.34-18.43-129.43-36.24C446.8,345,408.22,329,374.3,329c-25.43,0-45.7,9.38-62,28.7-.21.25-.43.49-.66.73-10.05,10.13-17.91,26.33-22.16,45.61a134.63,134.63,0,0,0,1.22,62.58A159.61,159.61,0,0,1,293.29,419.17Z"/><path class="cls-2" d="M440,462.6v0c3.05-5.34,4.6-10.51,4.6-15.37v-.54a23.13,23.13,0,0,0-5.35-14.57l0-.05a31.64,31.64,0,0,0-7.71-6.39,44.29,44.29,0,0,0-21.25-5H409.2A74.39,74.39,0,0,0,390,423.36a71.52,71.52,0,0,0-11.49,4.21,52.71,52.71,0,0,0-15.73,11.18c-5.28,5.87-8,12.09-8,18.46a19.31,19.31,0,0,0,.75,5.43c2.16,6.77,8,11.31,17.27,13.5h.05c1.76.31,2.9.49,3.64.59l-.93,2.14c-4.61,10.8-7,20.28-7,28.18a29.81,29.81,0,0,0,1.75,10.44c1.67,4.28,4.18,7.34,7.47,9.1h0a.91.91,0,0,0,1.27-1h0c-.13-1.35-.2-2.85-.2-4.45,0-7.5,2.21-16.52,6.53-26.82a107.68,107.68,0,0,0,22.85-7,84.31,84.31,0,0,0,23.52-14.74A42.56,42.56,0,0,0,440,462.6Zm-44.65,12.56.57-.16c12.22-3.75,20.7-10.46,25.18-19.95l.71-1.51c.34-.72-.51-1.4-1-.83l-1.1,1.2-.17.22a25,25,0,0,1-3.23,3.59A44,44,0,0,1,401,466.2a270.57,270.57,0,0,1,17.54-23.4h0a1,1,0,0,0-.2-1.49h0a10.9,10.9,0,0,0-6.09-1.78c-4.55,0-9.32,2.05-14.2,6.12a46.12,46.12,0,0,0-5.57,5.3,87.07,87.07,0,0,0-12.32,18.24,40.68,40.68,0,0,1-4.68-.53c-7.89-1.73-11.73-5.17-11.72-10.51,0-4,2.08-8.21,6.13-12.41a44.22,44.22,0,0,1,8.65-6.43,62.29,62.29,0,0,1,11.25-4.86,64.45,64.45,0,0,1,18.8-2.95,30.81,30.81,0,0,1,12.95,2.64c6.53,3.53,9.69,7.82,9.68,13.13,0,4.47-2.42,9.65-7.18,15.41-7.87,8.56-18.69,14.8-32.17,18.55C392.76,479.52,393.94,477.49,395.33,475.16ZM604,452.66l.85-.37.66,2a38.81,38.81,0,0,1,1.66,10.07c0,4.67-1.89,7.78-5.6,9.27a8.18,8.18,0,0,1-2.27.67l-1.56.15.68-1.55a9.3,9.3,0,0,0,.69-3.75,16.56,16.56,0,0,0-1.45-6.77l-.05-.16a5.16,5.16,0,0,1-.18-1.35,5.78,5.78,0,0,1,.33-1.84C598.49,456.31,600.59,454.15,604,452.66Zm32.79,27.25a57.58,57.58,0,0,1-3.61,8.72,42.15,42.15,0,0,1-8.85,11.57,37.15,37.15,0,0,1-6.42,4.84c.55-2.37,1.17-5.69,1.89-10.05A96.58,96.58,0,0,1,623,480.47c1.73-5.12,4-9,6.63-11.46a19.55,19.55,0,0,1,9.78-4.83h0a1,1,0,0,0,.35-1.77h0a15.22,15.22,0,0,0-9.31-3.2c-4.34,0-8.48,1.86-12.31,5.57a34.17,34.17,0,0,0-7.94,13.38,88.13,88.13,0,0,0-2.45,9.73c-1.27,7.11-2.24,11.77-2.88,13.88a22.68,22.68,0,0,1-3.24,7c-1.53,2-3.27,3-5.31,3a6.46,6.46,0,0,1-4.5-1.94l-.06-.05a7.78,7.78,0,0,1-1.72-2.19,14.06,14.06,0,0,1-1.7-6.85c0-.21,0-.44,0-.69,1.65-2.35,3.44-5,5.32-7.78,3.84-5.74,6.4-9.5,7.61-11.18l.2-.26v-.34c0-1-.94-1-1.33-1l-1.46,0c-2.16,0-2.48.12-2.75.32l-.11.09c-.6.6-2.47,2.85-5.72,6.87-7.28,9-10.62,12.6-12.16,14a153,153,0,0,1,9.45-22c3.15-6,5.58-10.76,7.23-14.09,3.83-7.75,5.69-13.26,5.7-16.86,0-5-2.19-9.51-6.54-13.33a32.77,32.77,0,0,0-5.58-3.74l-.18-.09h-1.16V432l.2.27a4.49,4.49,0,0,1,.64,2.64,22.53,22.53,0,0,1-2.25,8.48l-15.4,35.85h-.22l-.26.29a17.28,17.28,0,0,1-2.48,2.27c-2.24,1.63-4.09,2.46-5.5,2.46-1.07,0-1.16-.45-1.16-1,0-1.68,1.07-4.09,3.15-7.15l0-.07a44.15,44.15,0,0,1,4.54-5.63c2.61-3,3.15-4.13,3.15-4.93l0-.19a6.12,6.12,0,0,0-1.49-2.87l0-.06a11.84,11.84,0,0,0-8.7-3.28,10.69,10.69,0,0,0-7.1,2.51l-.1.1c-4.16,4.74-8.28,9.92-12.29,15.45,1.35-2.24,2.77-4.5,4.27-6.8l.23-.36-.09-.43a9.56,9.56,0,0,0-1.67-3.59c-1.86-2.33-4.64-3.51-8.28-3.52-3.25,0-6.47,2.56-9.84,7.85A73.53,73.53,0,0,0,521,480.56c-1.31,1.43-3.79,4.4-7.58,9.05-1.87,2.3-4.1,4.9-6.64,7.73-1.29,1.44-2.19,2.36-2.82,3,1.4-3.24,5.94-11.65,19.07-32.91l.19-.31,0-.37a7.65,7.65,0,0,0-2.3-4.21l-.05-.05a12.27,12.27,0,0,0-8.53-3.33,9.19,9.19,0,0,0-8.32,4.27c-3.89-3.57-7.87-5.38-11.84-5.39a11.61,11.61,0,0,0-6.83,2.54,31.65,31.65,0,0,0-5.69,5.66,87,87,0,0,0-8.79,13.22c-1.28,2.38-2.44,4.72-3.46,6.95a145.72,145.72,0,0,1-11.72,14.71,28.9,28.9,0,0,1-6.29,5.32,12.15,12.15,0,0,1-5.73,1.9c-1.65,0-3.55-.54-3.54-4.68a26,26,0,0,1,.52-4.73,51,51,0,0,0,5.56-3.41,101.42,101.42,0,0,0,14-11.77c6.46-6.59,9.6-11.86,9.61-16.1a7,7,0,0,0-1.72-4.7l0,0A13.8,13.8,0,0,0,457.79,459h-.22c-4.62,0-9.25,1.68-13.75,5-5.26,3.83-9.95,9.6-13.91,17.17-3.55,6.77-5.35,12.89-5.36,18.2,0,5.6,2.05,9.82,6.11,12.52A18.72,18.72,0,0,0,441.35,515a20.66,20.66,0,0,0,11.59-3.52,45.11,45.11,0,0,0,8-7q.71-.78,1.41-1.62a22.31,22.31,0,0,0-.11,2.26,24.61,24.61,0,0,0,.8,6.49c1.34,4.66,3.43,7,6.2,7a7.43,7.43,0,0,0,5-2.45c1.85-1.65,4.92-5.31,9.38-11.18,2.38-3.13,4.8-6.36,7.22-9.68l-.32.77,0,.09a25.59,25.59,0,0,0-1.18,7.43,14.87,14.87,0,0,0,1.59,7.07c1.57,2.94,3.77,4.43,6.54,4.44a9.17,9.17,0,0,0,6-2.48c.69-.46,2.2-1.95,7.26-8.7,1.61-2.17,3.25-4.42,4.91-6.73a28.82,28.82,0,0,0-.85,5.58,11.44,11.44,0,0,0,3.19,7.49l0,0a17.45,17.45,0,0,0,5.64,4l0,0a10.6,10.6,0,0,0,2.81.82h.62l.22-.63a129.68,129.68,0,0,1,10-22,116.77,116.77,0,0,1,9.85-14.81,27.22,27.22,0,0,0-.49,4.95,17.54,17.54,0,0,0,1.57,7.57l0,0c1.85,3.4,4.26,5.12,7.17,5.13,3.25,0,6.84-2,10.92-6.16a31.23,31.23,0,0,0-.81,6.9,21.19,21.19,0,0,0,.49,4.71c0,.5.31,1.7,1.87,6.46,1.74,5.33,3.81,7.92,6.32,7.92,1.28,0,2.7-.81,4.38-2.53,2-2.2,4.41-5.34,7.31-9.34,0,.21,0,.42,0,.63a14.84,14.84,0,0,0,4,10.71,15,15,0,0,0,11,4.13c6,0,12.24-2.27,18.5-6.8l1.71-1.32a52,52,0,0,0,10.13-11,72.72,72.72,0,0,0,9.4-19.13h0a1,1,0,0,0-.83-1.31h-2.19a.9.9,0,0,0-.84.65ZM501.08,470c-9,14.71-16.94,26.06-23.6,33.71-.93,1-1.72,1.78-2.39,2.43q.2-.75.45-1.56A117.16,117.16,0,0,1,494,471.61c1.61-2,3.21-3,4.77-3A2.48,2.48,0,0,1,501.08,470Zm-58.73,22.22q1.31-2.93,3.74-7.22c1.77-3.11,3.82-6.3,6.09-9.5,5.09-7,7.77-8.44,9.12-8.43a2.21,2.21,0,0,1,.73.11v.07c0,1.08-.79,3.5-4.55,8.84a107.45,107.45,0,0,1-8.09,9.77A65.28,65.28,0,0,1,442.35,492.17Z"/><path class="cls-3" d="M571,460.87l.15.16a8.1,8.1,0,0,1,1.93,3.83l.06.58c0,1.57-.92,3.15-3.64,6.27a43.65,43.65,0,0,0-4.32,5.3l-.14.22a18.77,18.77,0,0,0-2.61,4.95,11.48,11.48,0,0,0,3.4-1.79,26.08,26.08,0,0,1,1.88-3.15l.14-.23a28.52,28.52,0,0,1,2.71-3.45L575.07,463a9.85,9.85,0,0,0-1.29-1.93l-.15-.17a13.48,13.48,0,0,0-9.9-3.79c-.42,0-.83,0-1.23.05A13.11,13.11,0,0,1,571,460.87Z"/><path class="cls-3" d="M522,460.94l.14.14a9.51,9.51,0,0,1,2.83,5.36l.14,1.1-.58.93c-4.64,7.51-8.19,13.39-10.9,18,2.79-3.4,4.74-5.72,5.92-7a76.94,76.94,0,0,1,5.21-10.28,35,35,0,0,1,2.68-3.69,10.27,10.27,0,0,0-2.63-4.37l-.14-.14a13.92,13.92,0,0,0-9.67-3.79c-.46,0-.9,0-1.33,0A13.92,13.92,0,0,1,522,460.94Z"/><path class="cls-3" d="M545.65,464.62l.05.07a13.19,13.19,0,0,1,1.31,2.24l1.56-1.93-.2-.3-.06-.07c-2.21-2.77-5.44-4.18-9.61-4.19a7.17,7.17,0,0,0-1,.08A11.2,11.2,0,0,1,545.65,464.62Z"/><path class="cls-3" d="M469.25,461.42l.12.14a9.07,9.07,0,0,1,2.21,6c0,4.88-3.24,10.45-10.18,17.52a102.48,102.48,0,0,1-14.3,12c-1.89,1.29-3.54,2.33-4.94,3.1a21.08,21.08,0,0,0-.31,3.39c0,2.72.77,2.72,1.77,2.72a5.53,5.53,0,0,0,1.53-.22c-.39-.29-.64-1-.64-2.5a21.3,21.3,0,0,1,.32-3.39,57.16,57.16,0,0,0,4.93-3.1,102.51,102.51,0,0,0,14.3-12c1.53-1.55,2.86-3,4-4.44.38-.75.77-1.51,1.18-2.27,1.38-2.53,2.87-5,4.45-7.34a13.19,13.19,0,0,0,.53-3.47,9.08,9.08,0,0,0-2.21-6.05l-.13-.13A15.48,15.48,0,0,0,460.46,457h-.22c-.4,0-.8,0-1.21,0A15.07,15.07,0,0,1,469.25,461.42Z"/><path class="cls-3" d="M495.36,472.9l0,0a95.94,95.94,0,0,0-10.7,16q-2.4,4.35-4.21,8.24a291,291,0,0,0,18.12-26.58C497.35,470.74,496.17,471.91,495.36,472.9Z"/><path class="cls-3" d="M503.7,460.67a11.28,11.28,0,0,1,1.18-1.12,17.5,17.5,0,0,0-10.09-3.5,7.92,7.92,0,0,0-1.19.07A19.17,19.17,0,0,1,503.7,460.67Z"/><path class="cls-3" d="M594.84,432.87l0,0c4.8,4.2,7.22,9.19,7.22,14.85a18.54,18.54,0,0,1-.51,4,17.37,17.37,0,0,1,1.78-.89l1.16-.5a16.32,16.32,0,0,0,.23-2.58c0-5.66-2.41-10.66-7.21-14.86l0,0a35.67,35.67,0,0,0-5.87-3.94l-.55-.28h-2.66l.54.29A34.64,34.64,0,0,1,594.84,432.87Z"/><path class="cls-3" d="M591.6,479.68c2.31-4.4,4.23-8.12,5.74-11.11a14.41,14.41,0,0,0-.72-3.93c-.15.3-.29.6-.44.91-1.65,3.34-4.09,8.1-7.25,14.13-2.32,4.51-4.33,8.81-6,12.84,1.58-1.86,3.5-4.18,5.84-7.08C589.65,483.56,590.59,481.65,591.6,479.68Z"/><path class="cls-3" d="M640.74,460.8a3.06,3.06,0,0,1,1.1,3,2.79,2.79,0,0,1-2.15,2.26,17.78,17.78,0,0,0-8.93,4.4c-2.43,2.26-4.49,5.84-6.11,10.65a94.15,94.15,0,0,0-3.07,14.17c-.34,2.12-.67,4-1,5.61q1.32-1,2.61-2.22l.55-.52.48-2.86a94,94,0,0,1,3.07-14.18c1.62-4.8,3.68-8.39,6.11-10.64a17.88,17.88,0,0,1,8.93-4.41,2.78,2.78,0,0,0,2.15-2.26,3,3,0,0,0-1.1-3,16.87,16.87,0,0,0-10.31-3.55c-.43,0-.86,0-1.28.05A17,17,0,0,1,640.74,460.8Z"/><path class="cls-3" d="M607.24,453.76A40.87,40.87,0,0,1,609,464.41c0,5.49-2.35,9.32-6.77,11.09a9.2,9.2,0,0,1-2.73.78l-1.88.18-.12.28,4.67-.45a9.79,9.79,0,0,0,2.72-.78c4.43-1.77,6.77-5.61,6.78-11.1a40.93,40.93,0,0,0-1.74-10.65l-1.3-4-2.34,1Z"/><path class="cls-3" d="M602.87,477.51c-.34,0-.85,0-1.52,0l-1.26,0h.11a2.89,2.89,0,0,1,3,3v1l-.57.79c-1.2,1.66-3.75,5.41-7.57,11.13-1.77,2.63-3.45,5.09-5,7.31h0a12,12,0,0,0,1.44,5.84,5.84,5.84,0,0,0,1.24,1.61l.18.15a4.75,4.75,0,0,0,3.34,1.48,4.09,4.09,0,0,0,1.31-.22,5.48,5.48,0,0,1-2-1.26l-.17-.15a5.48,5.48,0,0,1-1.24-1.61,11.94,11.94,0,0,1-1.44-5.83h0c1.55-2.22,3.23-4.67,5-7.31,3.83-5.72,6.38-9.46,7.58-11.12l.57-.8v-1A2.89,2.89,0,0,0,602.87,477.51Z"/><path class="cls-3" d="M378.41,466.74c-9.19-2-10.25-5.87-10.25-8.58,0-3.47,1.88-7.16,5.56-11a42.24,42.24,0,0,1,8.26-6.14,59.77,59.77,0,0,1,10.91-4.71,64,64,0,0,1,16.93-2.86c-.42,0-.84,0-1.27,0a62.81,62.81,0,0,0-18.32,2.88A60.87,60.87,0,0,0,379.32,441a42.42,42.42,0,0,0-8.27,6.14c-3.68,3.82-5.55,7.51-5.55,11,0,2.71,1.05,6.55,10.24,8.58,1.33.21,2.46.35,3.38.43l.16-.3Z"/><path class="cls-3" d="M545,483.82a113.74,113.74,0,0,0-6.1,9.71A128.77,128.77,0,0,0,529,515.21l-.61,1.81a3.84,3.84,0,0,0,.78.1H531l.65-1.9a128.07,128.07,0,0,1,9.89-21.69c1.2-2.14,2.49-4.27,3.86-6.37A21,21,0,0,1,545,483.82Z"/><path class="cls-3" d="M563.92,494a15.36,15.36,0,0,1-7.06,3.26,8.72,8.72,0,0,0,1.31.1,11.77,11.77,0,0,0,5.67-1.59C563.85,495.18,563.87,494.59,563.92,494Z"/><path class="cls-3" d="M513.05,503.88l-1,1.3c-5.32,7.1-6.77,8.48-7.61,9.06a11.3,11.3,0,0,1-5.7,2.72,8.36,8.36,0,0,0,1.34.11,10.71,10.71,0,0,0,7-2.82c.78-.54,2.09-1.78,6.54-7.63A11.1,11.1,0,0,1,513.05,503.88Z"/><path class="cls-3" d="M644.69,478.56a2.62,2.62,0,0,0-2.18-1.25h-2.18l-.21,0a2.65,2.65,0,0,1,1.91,1.23,3.16,3.16,0,0,1,.32,2.67,74.42,74.42,0,0,1-9.66,19.66,53.8,53.8,0,0,1-10.49,11.39l-1.78,1.38c-6.08,4.39-12.16,6.77-18.1,7.08.42,0,.85,0,1.29,0,6.38,0,12.93-2.39,19.48-7.13l1.78-1.38a53.58,53.58,0,0,0,10.49-11.39A74.88,74.88,0,0,0,645,481.23,3.17,3.17,0,0,0,644.69,478.56Z"/><path class="cls-3" d="M487.55,503.6c0-.24,0-.49,0-.73-.86,1.14-1.71,2.27-2.56,3.38-4.51,5.94-7.65,9.67-9.59,11.42a10,10,0,0,1-4.82,2.77,6.31,6.31,0,0,0,1.33.15,9,9,0,0,0,6.16-2.92c1.94-1.74,5.08-5.48,9.58-11.41l0-.07A21.57,21.57,0,0,1,487.55,503.6Z"/><path class="cls-3" d="M584.63,508.28c-1.77,2.34-3.34,4.28-4.68,5.78l-.06.07A10,10,0,0,1,575.6,517a5.08,5.08,0,0,0,1.36.19c1.76,0,3.59-1,5.6-3.06l.06-.06q1.25-1.41,2.75-3.3A18,18,0,0,1,584.63,508.28Z"/><path class="cls-3" d="M453.57,476.67c-1.55,2.18-3,4.36-4.31,6.51a98.55,98.55,0,0,0,6.82-8.34c1.31-1.87,2.21-3.31,2.83-4.41A40.08,40.08,0,0,0,453.57,476.67Z"/><path class="cls-3" d="M423.15,441.72a2.94,2.94,0,0,0-1.27-2.08,12.44,12.44,0,0,0-7-2.05c-.47,0-.93,0-1.4.06a12.23,12.23,0,0,1,5.74,2,3,3,0,0,1,1.26,2.08,3.12,3.12,0,0,1-.67,2.4c-5.13,6.18-9.78,12.22-13.86,18a42.54,42.54,0,0,0,4.37-2.4c3.66-5.06,7.73-10.29,12.16-15.63A3.14,3.14,0,0,0,423.15,441.72Z"/><path class="cls-3" d="M460.57,507.55a41.9,41.9,0,0,1-6.74,5.65,22.38,22.38,0,0,1-11.12,3.74c.43,0,.86,0,1.3,0a22.38,22.38,0,0,0,12.49-3.79,33.17,33.17,0,0,0,4.35-3.39C460.73,509.07,460.64,508.32,460.57,507.55Z"/><path class="cls-3" d="M425.32,456l.72-1.5a2.83,2.83,0,0,0-.72-3.38,2.24,2.24,0,0,0-2.77-.07l.1.07a2.82,2.82,0,0,1,.72,3.37l-.71,1.51c-4.71,10-13.53,17-26.22,20.91-.23.39-.46.77-.67,1.14a65.18,65.18,0,0,0,24.32-14A35.06,35.06,0,0,0,425.32,456Z"/><path class="cls-3" d="M430.63,476.16a88.52,88.52,0,0,1-21.68,13,107.84,107.84,0,0,1-22.26,6.9c-4,9.65-6,18.09-6,25.08,0,1.53.06,3,.19,4.24a3,3,0,0,1-1.12,2.71,1.28,1.28,0,0,1-.21.14l.18.11a2.49,2.49,0,0,0,1.16.29,2.54,2.54,0,0,0,1.54-.53,3.06,3.06,0,0,0,1.11-2.72c-.12-1.28-.19-2.7-.18-4.24,0-7,2-15.42,6-25.08a108.75,108.75,0,0,0,22.27-6.89,93.63,93.63,0,0,0,16.95-9.4C429.24,478.53,429.93,477.32,430.63,476.16Z"/><path class="cls-3" d="M432.3,423.91l0,0a33.75,33.75,0,0,1,8.15,6.76l.11.13a25.13,25.13,0,0,1,5.77,15.85v.55a33,33,0,0,1-4.62,15.94l1.09-.83a34,34,0,0,1,3-2A31.3,31.3,0,0,0,449,447.22v-.54a25.11,25.11,0,0,0-5.78-15.86l-.1-.13a33.47,33.47,0,0,0-8.15-6.75l0,0a45.8,45.8,0,0,0-22-5.21h-1.06l-.66,0A45.49,45.49,0,0,1,432.3,423.91Z"/><path class="cls-4" d="M522.58,481.77l-.25.27c-1.28,1.41-3.74,4.34-7.5,9-1.89,2.32-4.14,4.94-6.71,7.8l-.64.71q-.21.42-.36.78c.63-.6,1.53-1.52,2.82-3,2.54-2.82,4.78-5.43,6.65-7.73,3.79-4.65,6.27-7.61,7.58-9.05a74.62,74.62,0,0,1,5.2-10.32,28.53,28.53,0,0,1,3.72-4.79,19.42,19.42,0,0,0-5.32,6,73.07,73.07,0,0,0-5,10Z"/><path class="cls-4" d="M570.87,481.33h-.26c-.25.27-.51.52-.76.76l.43-.29C570.47,481.65,570.67,481.5,570.87,481.33Z"/><path class="cls-4" d="M544.76,477.09c3.84-5.3,7.78-10.27,11.77-14.86a10.05,10.05,0,0,0-1.35.92c-2.35,2.68-4.69,5.52-7,8.48C547,473.47,545.84,475.29,544.76,477.09Z"/><path class="cls-4" d="M469.06,487.3l-.08.18-.12.17a146.67,146.67,0,0,1-11.92,14.94c-1.05,1.09-2,2-2.91,2.83a39.06,39.06,0,0,0,4.79-4.35,145.53,145.53,0,0,0,11.72-14.7c1-2.23,2.17-4.57,3.45-7a87.64,87.64,0,0,1,8.79-13.21,42,42,0,0,1,3.68-4l-.14.09a29.49,29.49,0,0,0-5.29,5.29,85.09,85.09,0,0,0-8.58,12.88C471.2,482.82,470.06,485.11,469.06,487.3Z"/><path class="cls-4" d="M507.14,463.39a9.9,9.9,0,0,1,.95-1.24,6.64,6.64,0,0,0-1.3.92Z"/><path class="cls-4" d="M395.63,451c1.7-1.79,3.05-3.14,4.09-4.08-.18.14-.37.29-.55.45l-.06.05-.07,0a46.83,46.83,0,0,0-5.25,5,85.72,85.72,0,0,0-11.44,16.71c.35,0,.67,0,1,.05A87.59,87.59,0,0,1,395.63,451Z"/><path class="cls-4" d="M597.52,481.55l-.6,0c-.54.6-1.94,2.26-5.39,6.52-4.41,5.48-7.83,9.51-10.22,12.06l-.19.54c1.54-1.39,4.89-5,12.17-14C595.14,484.42,596.54,482.71,597.52,481.55Z"/><path class="cls-4" d="M601.05,469.19a13.85,13.85,0,0,1-.23,2.56l.12-.05a7.85,7.85,0,0,0,1.23-.62,11.28,11.28,0,0,0,.16-1.89,16.72,16.72,0,0,0-1.45-6.77l-.06-.15a5.69,5.69,0,0,1-.17-1.36,6.14,6.14,0,0,1,.32-1.84,8,8,0,0,1,2-3.53,9.17,9.17,0,0,0-1.65,1.29c-.53,1.37-1.17,2.86-1.89,4.44,0,.11,0,.22.05.33A18.61,18.61,0,0,1,601.05,469.19Z"/><path class="cls-4" d="M571.49,480.79a16.83,16.83,0,0,0,1.26-1.27l.26-.28h.22l15.4-35.86a22.3,22.3,0,0,0,2.26-8.48s0-.08,0-.13c-.44-.31-.88-.62-1.32-.91a7,7,0,0,1,.05,1,24.5,24.5,0,0,1-2.43,9.37Z"/><path class="cls-4" d="M606.66,502.44a24.79,24.79,0,0,1-3.57,7.62c-.28.36-.56.69-.85,1a8,8,0,0,0,2.55-2.33,22.22,22.22,0,0,0,3.24-7c.65-2.1,1.62-6.77,2.89-13.87a85.9,85.9,0,0,1,2.44-9.74,34.2,34.2,0,0,1,7.94-13.37c.18-.18.37-.34.55-.51a22.67,22.67,0,0,0-2.44,2.05A32,32,0,0,0,612,478.87a84.32,84.32,0,0,0-2.36,9.43C608.32,495.48,607.33,500.24,606.66,502.44Z"/><path class="cls-4" d="M634.86,489.69a44.47,44.47,0,0,1-9.26,12.12c-.35.32-.7.62-1.05.92q1.51-1.16,3-2.52a38.45,38.45,0,0,0,3.26-3.36,67.1,67.1,0,0,0,5-9.09C635.5,488.42,635.19,489.06,634.86,489.69Z"/><path class="cls-4" d="M502.6,468.69a.76.76,0,0,1,.08.11l.69,1.16-.7,1.16c-9.05,14.81-17.06,26.24-23.81,34l-.06.06-.37.38-.16.55c.67-.66,1.47-1.47,2.39-2.44,6.66-7.64,14.61-19,23.6-33.71A2.49,2.49,0,0,0,502.6,468.69Z"/><path class="cls-4" d="M551.52,490.28l0,0a17.33,17.33,0,0,1-1.57-7.58,26.53,26.53,0,0,1,.49-4.95c-.53.68-1.06,1.37-1.57,2.06a26.17,26.17,0,0,0-.2,2.89,15.23,15.23,0,0,0,1.33,6.54,8.26,8.26,0,0,0,3.24,3.56A14.45,14.45,0,0,1,551.52,490.28Z"/><path class="cls-4" d="M521.19,510.32l0,0a11.45,11.45,0,0,1-3.2-7.49,29.83,29.83,0,0,1,.85-5.59l-1.71,2.38a18.22,18.22,0,0,0-.41,3.21,9.28,9.28,0,0,0,2.63,6,17.72,17.72,0,0,0,2.5,2.16Q521.51,510.65,521.19,510.32Z"/><path class="cls-4" d="M571.16,507.31c-1.55-4.76-1.83-6-1.87-6.45a21.89,21.89,0,0,1-.49-4.72,31.26,31.26,0,0,1,.82-6.9c-.52.53-1,1-1.53,1.47a28.94,28.94,0,0,0-.56,5.43,18.64,18.64,0,0,0,.44,4.22l0,.17v.14a50.35,50.35,0,0,0,1.77,5.93c.9,2.77,2.33,6,4.12,6.48A20.06,20.06,0,0,1,571.16,507.31Z"/><path class="cls-4" d="M494.11,510.68a14.84,14.84,0,0,1-1.6-7.07,26,26,0,0,1,1.19-7.42l0-.09.32-.78L492,498.14a22.36,22.36,0,0,0-.74,5.47,12.69,12.69,0,0,0,1.33,6,6.4,6.4,0,0,0,2.78,2.93A10.47,10.47,0,0,1,494.11,510.68Z"/><path class="cls-4" d="M591.09,511.88l-.5-.43a9,9,0,0,1-1.73-2,11.56,11.56,0,0,0,2.41,3.68,11.84,11.84,0,0,0,1.8,1.44A14,14,0,0,1,591.09,511.88Z"/><path class="cls-4" d="M434.37,447.28c0-4.27-2-7.89-6.24-11a14.46,14.46,0,0,1,5,11c0,5-2.59,10.67-7.68,16.82l-.07.08a57.34,57.34,0,0,1-4.82,4.65,56.43,56.43,0,0,0,6.66-6.14C432,456.93,434.36,451.74,434.37,447.28Z"/><path class="cls-4" d="M460.67,476c3.75-5.34,4.54-7.75,4.55-8.83a.35.35,0,0,0,0-.07,1.85,1.85,0,0,0-.73-.12,2.22,2.22,0,0,0-.54.07v.11c0,1.33-.51,3.82-4.95,10.12a107,107,0,0,1-8.25,10l-.06.06c-1.74,1.77-3.35,3.3-4.81,4.57a69.3,69.3,0,0,0,6.7-6.11A104.81,104.81,0,0,0,460.67,476Z"/><path class="cls-4" d="M466.25,511.6a25,25,0,0,1-.81-6.48c0-.72,0-1.48.11-2.26-.45.54-.91,1.06-1.37,1.58,0,.23,0,.46,0,.68a22.17,22.17,0,0,0,.72,5.85c.89,3.11,2.08,4.92,3.53,5.42A14.79,14.79,0,0,1,466.25,511.6Z"/><path class="cls-4" d="M358.76,462.65a19,19,0,0,1-.75-5.43c0-6.38,2.69-12.59,8-18.47,1-1.09,2.13-2.14,3.28-3.14a46.22,46.22,0,0,0-5.11,4.61c-4.91,5.47-7.41,11.19-7.42,17a17.11,17.11,0,0,0,.64,4.73,15.41,15.41,0,0,0,5.93,7.93A17,17,0,0,1,358.76,462.65Z"/><path class="cls-4" d="M427.73,499.33c0-5.3,1.82-11.42,5.37-18.19a52.15,52.15,0,0,1,11.28-15.05c-4.82,3.64-9.13,9.05-12.81,16.09-3.38,6.45-5.1,12.22-5.11,17.15s1.69,8.4,5.21,10.74h0C429.05,507.43,427.73,503.83,427.73,499.33Z"/><path class="cls-4" d="M373.57,517.51a29.38,29.38,0,0,1-1.75-10.45c0-7.89,2.36-17.37,7-28.17l.94-2.14-1-.15-1.38,3.17c-4.49,10.52-6.77,19.7-6.78,27.29a27.19,27.19,0,0,0,1.59,9.62,15.83,15.83,0,0,0,4.92,7v-.27A19.35,19.35,0,0,1,373.57,517.51Z"/><path class="cls-2" d="M435.08,537.3A52.61,52.61,0,0,0,448,547.6c1.22.72,2.5,1.33,3.75,2l3.87,1.83,4,1.6,4.07,1.43a111,111,0,0,0,16.85,4,125.47,125.47,0,0,0,17.31,1.4A117.65,117.65,0,0,0,532,555.31c10.94-3.21,21.35-8.24,29.6-15.39A7.13,7.13,0,1,1,571,550.69a6.59,6.59,0,0,1-1.29.89l-.14.08A123.19,123.19,0,0,1,534,563.79a160,160,0,0,1-36.35,2.37,153.53,153.53,0,0,1-18-1.83,146.93,146.93,0,0,1-17.77-3.85c-11.68-3.37-23.16-8.13-33.43-16.16h0a4.85,4.85,0,1,1,6-7.64A4.92,4.92,0,0,1,435.08,537.3Z"/><path class="cls-1" d="M327.74,661.86l-1.06.08-.08,1.38c-.13,3.1-.2,4.83-.2,5.18a7.65,7.65,0,0,0,.45,3.24,1.92,1.92,0,0,0,1.86.81c.54,0,1.25,0,2.14-.12l3.12-.13,2.91-.12h2.68q5.1,0,7.08,1.05a5.11,5.11,0,0,1,1.9,1.7,4.63,4.63,0,0,1,.69,2.35,5.17,5.17,0,0,1-.41,2,4.61,4.61,0,0,1-1.09,1.66,1.87,1.87,0,0,1-1.33.65,2.84,2.84,0,0,1-.57-.08l-1-.28a27.77,27.77,0,0,0-7-.69c-2.05,0-4,.05-5.79.16-3.27.14-5.47.28-6.6.45a30.09,30.09,0,0,1-4.09.4,3,3,0,0,1-3.11-2.22,24.43,24.43,0,0,1-.73-7c0-1.29,0-2.8.08-4.53,0-.51,0-1,0-1.33,0-.19,0-.42.06-.67s0-.47,0-.63,0-.65.08-1.78l0-1.05q-1.94-2.88-1.94-4.62a2.59,2.59,0,0,1,.57-1.7,5.22,5.22,0,0,1,1.78-1.29c.1-1.76.24-3.55.4-5.39.3-3.23.67-6.44,1.13-9.63.35-2.24.54-3.56.57-4l.12-.93a8.49,8.49,0,0,1-1.13-3.24c0-1.88,1.41-3.25,4.25-4.08s7.31-1.26,13.6-1.26c4.15,0,7,.3,8.5.89q3.15,1.26,3.15,4.13a5.1,5.1,0,0,1-1,2.92,2.64,2.64,0,0,1-2.06,1.37h-.24l-.93-.4a19.05,19.05,0,0,0-5-.37c-2.76,0-4.9.06-6.44.17a15.58,15.58,0,0,0-2.95.36,1.65,1.65,0,0,0-1.18.89,5.74,5.74,0,0,0-.48,2.19,15.85,15.85,0,0,1-.24,1.86q-.33,2.46-.81,8.54c-.11.89-.21,2.44-.29,4.65q4.38-.36,7.81-.36c3.92,0,6.68.36,8.3,1.09a3.86,3.86,0,0,1,2.43,3.81,4.86,4.86,0,0,1-.89,2.87,2.54,2.54,0,0,1-2,1.29,1.39,1.39,0,0,1-.65-.16,10,10,0,0,0-2.11-.44,29.75,29.75,0,0,0-3.64-.17c-.86,0-2.13.05-3.8.13l-2.47.12-1,.08-.88.08A6,6,0,0,1,327.74,661.86Z"/><path class="cls-1" d="M374.49,644.7a64,64,0,0,0,1.13-10.77,3.07,3.07,0,0,0,0-.6v-1a2.5,2.5,0,0,1,1.05-2.06,4.88,4.88,0,0,1,2.84-.73,5.18,5.18,0,0,1,3.39,1.13,3.84,3.84,0,0,1,1.34,3.08,27.66,27.66,0,0,1-.49,3.56c-.16.92-.27,1.63-.34,2.15s-.16,1.22-.26,2.12-.26,2.13-.45,3.66q-.69,6-.93,10.29t-.24,7.28A49.86,49.86,0,0,0,383,676.07a6.13,6.13,0,0,1,.28,1.41,2.69,2.69,0,0,1-1.34,2.11,4.52,4.52,0,0,1-2.83,1,3.76,3.76,0,0,1-2.15-.69A5.28,5.28,0,0,1,375.3,678a20.74,20.74,0,0,1-1-5,18.3,18.3,0,0,1-2.26,3.68,17.24,17.24,0,0,1-2.67,2.72,10.38,10.38,0,0,1-2.88,1.66,9.43,9.43,0,0,1-3.15.56,8.77,8.77,0,0,1-5.35-1.74,11.06,11.06,0,0,1-3.64-4.94,19.19,19.19,0,0,1-1.3-7.24,34.87,34.87,0,0,1,1.26-9,40.92,40.92,0,0,1,3.4-8.78,20.22,20.22,0,0,1,4.9-6.35,8.85,8.85,0,0,1,5.54-2.15A8.23,8.23,0,0,1,374.49,644.7ZM372.3,656a12,12,0,0,0-.81-4.82,2.61,2.61,0,0,0-2.35-1.74q-2.91,0-5.66,7.77a36.08,36.08,0,0,0-2.31,12.07q0,5.22,2.43,5.22c.73,0,1.62-.55,2.67-1.66a18,18,0,0,0,2.83-4.13,30.12,30.12,0,0,0,2.35-6.39A27.11,27.11,0,0,0,372.3,656Z"/><path class="cls-1" d="M398,678.42a2.64,2.64,0,0,1-1.21,2.1,4.54,4.54,0,0,1-2.75.93,4.36,4.36,0,0,1-3.85-2,9.81,9.81,0,0,1-1.38-5.75c0-.16.07-1.84.21-5s.27-5.72.4-7.45l.45-6c.19-3.4.28-5.35.28-5.87,0-.26,0-.74,0-1.41a7.08,7.08,0,0,0-.24-1.86l-.25-1V645a.26.26,0,0,1,0-.16c0-.81.53-1.51,1.58-2.1a7,7,0,0,1,3.56-.9,4.62,4.62,0,0,1,3.08.9,3.32,3.32,0,0,1,1.05,2.63,20.27,20.27,0,0,1-.28,2.87q-.17,1.17-.57,4.86-.24,2.26-.52,6.39-.28,4-.33,6c-.08,1.7-.12,3.47-.12,5.3,0,1.65,0,2.68,0,3.08.06.76.11,1.3.16,1.62a14.33,14.33,0,0,0,.53,1.9A3.38,3.38,0,0,1,398,678.42Zm-8-45.86a3.39,3.39,0,0,1,1.5-2.55,5.45,5.45,0,0,1,3.31-1,7,7,0,0,1,4.25,1.29,3.85,3.85,0,0,1,1.74,3.08,3.34,3.34,0,0,1-1.29,2.71,4.94,4.94,0,0,1-3.36,1.09,6.86,6.86,0,0,1-4.29-1.42A4,4,0,0,1,390,632.56Z"/><path class="cls-1" d="M405.13,675.18q-.21-4.78-.21-9,0-4.74.21-10c.13-3.5.31-6.72.52-9.63.24-3.29.53-6.49.85-9.59a38.19,38.19,0,0,1,.85-5.71,4,4,0,0,1,1.38-2.47,4.21,4.21,0,0,1,2.51-.65,6.58,6.58,0,0,1,3.4.89,2.54,2.54,0,0,1,1.46,2.11,4.44,4.44,0,0,1-.33,1.17q-1.5,4.17-1.66,13.2a34.65,34.65,0,0,1,3.68-1.58,9.44,9.44,0,0,1,3-.41,9.64,9.64,0,0,1,5.62,1.62,11,11,0,0,1,3.73,4.62,18,18,0,0,1,1.29,7.08,25,25,0,0,1-3,11.7,26.75,26.75,0,0,1-7.9,9.43,16.48,16.48,0,0,1-9.91,3.64,7.58,7.58,0,0,1-4.57-1.29,3.92,3.92,0,0,1-1.83-3.32A2,2,0,0,1,405.13,675.18Zm7.81-1.7a16.56,16.56,0,0,0,5.26-4.17,22.48,22.48,0,0,0,4-6.36,17.09,17.09,0,0,0,1.49-6.72,6.31,6.31,0,0,0-1.09-4,3.48,3.48,0,0,0-2.91-1.42,5.28,5.28,0,0,0-3.89,1.7,10.83,10.83,0,0,0-2.47,4.82,28.68,28.68,0,0,0-.85,7.57A77.13,77.13,0,0,0,412.94,673.48Z"/><path class="cls-1" d="M446.25,678.33a2.74,2.74,0,0,1-1.22,2.23,4.65,4.65,0,0,1-2.95,1,4.6,4.6,0,0,1-3.8-2c-.92-1.24-1.38-3.23-1.38-6,0-.19,0-1.09.08-2.72a6,6,0,0,1,0-.84v-1l.2-5.26q.12-4.6.89-15.5l.57-7.89q.29-4,.28-5.91a8.61,8.61,0,0,0-.24-2.19,8,8,0,0,1-.32-1.41c0-.79.56-1.51,1.7-2.19a6.49,6.49,0,0,1,3.48-1,4.28,4.28,0,0,1,2.95,1,3.45,3.45,0,0,1,1.14,2.71c0,.3-.07,1-.21,2.15q-.36,3.27-.85,7.73-.64,6.15-1,15.18-.19,3.72-.24,5.87c0,1.48-.07,2.65-.12,3.52,0,.59,0,1.71,0,3.36q0,3.19.12,4.77a10.81,10.81,0,0,0,.4,2.51l.37,1A2.26,2.26,0,0,1,446.25,678.33Z"/><path class="cls-1" d="M459,670a5.44,5.44,0,0,0,1.74,3.23,5,5,0,0,0,3.36,1.1,10.09,10.09,0,0,0,4.49-1.14,14.57,14.57,0,0,0,4.17-3.11,7.4,7.4,0,0,0,2.19-4.33,2.06,2.06,0,0,1,2.34-2,4.41,4.41,0,0,1,3.2,1.22,4.2,4.2,0,0,1,1.26,3.11q0,4.05-5.1,8.66a17.68,17.68,0,0,1-12,4.94,14.93,14.93,0,0,1-7-1.66,12.28,12.28,0,0,1-4.89-4.65,12.83,12.83,0,0,1-1.79-6.68,26.68,26.68,0,0,1,1.79-9.07,37.92,37.92,0,0,1,4.73-9.06,24.23,24.23,0,0,1,6-6.11,10.84,10.84,0,0,1,6.15-2.19,7.37,7.37,0,0,1,5.71,2.51,9.31,9.31,0,0,1,2.27,6.35,14,14,0,0,1-1.42,6,20.62,20.62,0,0,1-3.93,5.55,26.89,26.89,0,0,1-6,4.49A28,28,0,0,1,459,670Zm1.33-8a26,26,0,0,0,7.13-5.71c2.08-2.37,3.11-4.31,3.11-5.82a1.38,1.38,0,0,0-.24-.9,1.1,1.1,0,0,0-.81-.32c-1.37.08-3,1.39-4.77,3.93A32.28,32.28,0,0,0,460.33,661.94Z"/><path class="cls-1" d="M524.41,635q-1,8.73-1.66,17.36-.53,7.53-.53,14.25,0,5.39.13,7.32a11.36,11.36,0,0,0,.52,3.12,7.62,7.62,0,0,1,.57,1.94c0,.73-.49,1.36-1.46,1.9a6.9,6.9,0,0,1-3.48.85,4.39,4.39,0,0,1-2.8-.93,4.8,4.8,0,0,1-1.69-2.51,34.7,34.7,0,0,1-.73-8.62q0-6.23.44-16.55.24-5.5,1.14-16l.12-1.5c-.68.08-1.12.12-1.34.12l-2.91.29a36.41,36.41,0,0,1-4.82.28,5.19,5.19,0,0,1-2-.32,4.09,4.09,0,0,1-1.34-1.22,6.35,6.35,0,0,1-1.13-3.76,4.45,4.45,0,0,1,.81-2.79,2.6,2.6,0,0,1,2.22-1l1,0,1.74.07h.6a2,2,0,0,0,.45,0c1,0,3-.13,6-.37l3.48-.28c1.48-.14,2.27-.2,2.35-.2l5.14-.29q5.58-.36,7.81-.36,3.84,0,5.46,1.09a4.1,4.1,0,0,1,1.62,3.6,5,5,0,0,1-.89,3.12,2.67,2.67,0,0,1-2.27,1.25c-.13,0-.49,0-1.09-.08l-2.39-.36a9.74,9.74,0,0,0-1.21-.08h-.45a1.49,1.49,0,0,0-.4,0c-1.59,0-2.79,0-3.6.08C527.46,634.49,526.32,634.66,524.41,635Z"/><path class="cls-1" d="M546.87,648.87v.44q6-5.7,12.23-5.7a5.68,5.68,0,0,1,3.64,1.09,3.59,3.59,0,0,1,1.37,2.91,5.47,5.47,0,0,1-1.41,3.64,4.19,4.19,0,0,1-3.2,1.71,4,4,0,0,1-.69-.08l-1-.29a3.71,3.71,0,0,0-.89-.12,7.18,7.18,0,0,0-3.89,1.46,13.81,13.81,0,0,0-3.6,3.84,16.28,16.28,0,0,0-2.14,5.3,34.16,34.16,0,0,0-.65,7.29,30,30,0,0,0,.2,3.89,16,16,0,0,0,.69,2.91,6.27,6.27,0,0,1,.32,1.42,2.67,2.67,0,0,1-1.45,2.14,5.59,5.59,0,0,1-3.2,1,3.67,3.67,0,0,1-2.91-1.13,7.43,7.43,0,0,1-1.5-3.89,52.26,52.26,0,0,1-.45-7.73c0-2.18.06-4.1.16-5.74l.29-6.12q.29-6.51.28-8.78a21.92,21.92,0,0,0-.24-3.28,4.39,4.39,0,0,1-.16-1.17,2.64,2.64,0,0,1,1.41-2.19,5.86,5.86,0,0,1,3.28-.93q3.81,0,3.81,3.12v.44a1.83,1.83,0,0,0,0,.49l-.16,2.27a9.75,9.75,0,0,0-.05,1.33A1.53,1.53,0,0,1,546.87,648.87Z"/><path class="cls-1" d="M573.26,670a5.44,5.44,0,0,0,1.74,3.23,5,5,0,0,0,3.36,1.1,10.13,10.13,0,0,0,4.49-1.14A14.57,14.57,0,0,0,587,670a7.4,7.4,0,0,0,2.19-4.33,2.06,2.06,0,0,1,2.34-2,4.41,4.41,0,0,1,3.2,1.22A4.2,4.2,0,0,1,596,668q0,4.05-5.1,8.66a17.67,17.67,0,0,1-12,4.94,14.94,14.94,0,0,1-7-1.66A12.28,12.28,0,0,1,567,675.3a12.83,12.83,0,0,1-1.79-6.68,26.68,26.68,0,0,1,1.79-9.07,37.92,37.92,0,0,1,4.73-9.06,24.23,24.23,0,0,1,6-6.11,10.84,10.84,0,0,1,6.15-2.19,7.37,7.37,0,0,1,5.71,2.51,9.31,9.31,0,0,1,2.27,6.35,14,14,0,0,1-1.42,6,20.8,20.8,0,0,1-3.92,5.55,27.18,27.18,0,0,1-6,4.49A28,28,0,0,1,573.26,670Zm1.33-8a26,26,0,0,0,7.13-5.71c2.08-2.37,3.11-4.31,3.11-5.82a1.38,1.38,0,0,0-.24-.9,1.1,1.1,0,0,0-.81-.32c-1.37.08-3,1.39-4.77,3.93A32.28,32.28,0,0,0,574.59,661.94Z"/><path class="cls-1" d="M617.06,677.69a14,14,0,0,1-8.83,3.07,10.84,10.84,0,0,1-7.16-2.38,7.45,7.45,0,0,1-2.83-6,12.57,12.57,0,0,1,1.65-5.86,17.66,17.66,0,0,1,4.46-5.31,28.41,28.41,0,0,1,12.83-5.3c.05-.86.08-1.54.08-2a9,9,0,0,0-.53-3.65,1.88,1.88,0,0,0-1.86-1.09,4.78,4.78,0,0,0-3,1.38,10,10,0,0,0-2.59,3.36,3.41,3.41,0,0,1-5.63,1.25,3,3,0,0,1-1.09-2.3,6.52,6.52,0,0,1,1.21-3.28,17.46,17.46,0,0,1,3.12-3.77q4.32-3.88,8.78-3.88a8.68,8.68,0,0,1,7,3.28,13,13,0,0,1,2.71,8.49c0,.87,0,1.92-.08,3.16l-.08,4.21,0,3.44c0,.19,0,1.44,0,3.77v1.37a6.52,6.52,0,0,0,0,.89q0,4.58.77,5.51l.57.72a1,1,0,0,1,.12.57,3.9,3.9,0,0,1-1.78,2.88,5.53,5.53,0,0,1-3.57,1.45C619.27,681.65,617.86,680.33,617.06,677.69Zm.2-12.83v-1.42a15.51,15.51,0,0,0-5.3,1.34,11.59,11.59,0,0,0-4.17,3,5.6,5.6,0,0,0-1.58,3.64,1.8,1.8,0,0,0,.69,1.46,2.68,2.68,0,0,0,1.78.57,9.84,9.84,0,0,0,3.88-1,11.59,11.59,0,0,0,3.53-2.39,4.21,4.21,0,0,0,1-1.74A21.57,21.57,0,0,0,617.26,664.86Z"/><path class="cls-1" d="M637.57,651.7c-1.88-.08-3.1-.16-3.64-.24a5.2,5.2,0,0,1-1.66-.49,4.06,4.06,0,0,1-2.1-4,5.81,5.81,0,0,1,.52-2.55c.36-.76.75-1.14,1.18-1.14a.92.92,0,0,1,.36.12,17.33,17.33,0,0,0,4.5.45,15.6,15.6,0,0,1,1.65-.08c0-.51,0-1.43,0-2.75a33,33,0,0,0-.33-5.59,4.57,4.57,0,0,1-.16-1.21,2.26,2.26,0,0,1,1.17-1.83,6.14,6.14,0,0,1,6.32.33,3.48,3.48,0,0,1,1.25,2.87c0,.65-.09,2.11-.28,4.37-.11,1.14-.17,2.2-.2,3.2a40.14,40.14,0,0,1,5.46-.52,2.36,2.36,0,0,1,2.67,2.67,18.45,18.45,0,0,1-.77,4.12,4,4,0,0,1-.48,1.26,1.22,1.22,0,0,1-.89.28c.21,0-.22,0-1.3-.08-.64,0-1-.08-1.21-.08-.62,0-1.74.07-3.36.2l-.65,0q-.24,3-.36,6.6V659c0,.16,0,.38,0,.64s0,.5-.06.69c0,.38-.05.89-.05,1.54,0,2.43-.08,4.12-.08,5.06q0,8.05,1.06,11a2.5,2.5,0,0,1,.28,1.05,2.24,2.24,0,0,1-1.18,1.82,4.22,4.22,0,0,1-2.62.85,4.58,4.58,0,0,1-4.46-3.07q-1.36-3-1.37-10.24,0-3,.44-11.58C637.28,655.91,637.39,654.24,637.57,651.7Z"/><path class="cls-1" d="M655.59,675.26a4.35,4.35,0,0,1,1.13-2.55,3,3,0,0,1,2.23-1.26,2.2,2.2,0,0,1,1.54.73l1,1c1.43,1.41,3.92,2.11,7.49,2.11s5.34-.57,5.34-1.7c0-.38-.37-.78-1.09-1.22l-.55-.32c-.34-.19-.82-.43-1.44-.73s-2-1-4.37-2.1a59.05,59.05,0,0,1-6.92-3.65,9.47,9.47,0,0,1-3.2-3.07,7.45,7.45,0,0,1-.93-3.77,9.73,9.73,0,0,1,1.62-5.18,17.53,17.53,0,0,1,4.49-4.85,33.81,33.81,0,0,1,8.1-4.58,21.29,21.29,0,0,1,7.73-1.74,5.7,5.7,0,0,1,4.61,2,8.79,8.79,0,0,1,1.66,5.74,13.18,13.18,0,0,1-1.41,6.11c-1,1.81-2,2.72-3.24,2.72a3.56,3.56,0,0,1-2.51-1.14,3.12,3.12,0,0,1-1.22-2.3,6.28,6.28,0,0,1,.85-2.23,5.26,5.26,0,0,0,.73-2.11c0-.89-.49-1.33-1.49-1.33a10.41,10.41,0,0,0-3.65,1,17.67,17.67,0,0,0-4.13,2.47q-3.36,2.67-3.36,4.49a2.43,2.43,0,0,0,1.22,2,27.5,27.5,0,0,0,5.26,2.67q6.76,2.91,8.87,4.85a7,7,0,0,1,2.55,5.19,7.62,7.62,0,0,1-3.81,6.71q-3.81,2.55-10.16,2.55a20.13,20.13,0,0,1-9.19-1.94Q655.6,677.94,655.59,675.26Z"/></svg>